<svg xmlns="http://www.w3.org/2000/svg" viewBox="0 0 99.77 99.77"><defs><style>.cls-1{fill:#f6eb16;}</style></defs><g id="Layer_2" data-name="Layer 2"><g id="Layer_1-2" data-name="Layer 1"><polygon class="cls-1" points="29.43 30.67 32.64 30.67 32.64 40.28 39.04 40.28 39.04 43.48 32.64 43.48 32.64 62.69 35.84 62.69 35.84 46.68 42.24 46.68 42.24 37.08 35.84 37.08 35.84 27.47 26.23 27.47 26.23 33.87 29.43 33.87 29.43 30.67"/><path class="cls-1" d="M74.78,42.23a17,17,0,0,0-12.46-5.16H47.91V65.88h3.21V40.28h11.2A14.41,14.41,0,0,1,76.73,54.69V72.3h3.21V54.69A17,17,0,0,0,74.78,42.23Z"/><path class="cls-1" d="M54.32,69.1H35.84a6.4,6.4,0,0,1-6.41-6.4V37.08h-9.6v3.2h6.4V62.69a9.63,9.63,0,0,0,9.61,9.61H57.52V43.48h-3.2Z"/><path class="cls-1" d="M49.88,96.93A47,47,0,1,1,96.93,49.88,47.11,47.11,0,0,1,49.88,96.93Zm0-91.71A44.67,44.67,0,1,0,94.55,49.88,44.72,44.72,0,0,0,49.88,5.22Z"/><path class="cls-1" d="M49.88,99.77A49.89,49.89,0,1,1,99.77,49.88,49.94,49.94,0,0,1,49.88,99.77Zm0-98.88a49,49,0,1,0,49,49A49,49,0,0,0,49.88.89Z"/></g></g></svg>